# Blender v2.74 (sub 0) OBJ File: ''
# www.blender.org
mtllib chocolate.mtl
o Box
v 5.285553 5.833374 -3.319049
v 4.462586 6.299466 -3.646124
v -1.923853 -7.308904 -3.871343
v -2.745655 -6.843339 -4.201086
v 1.836011 7.348218 3.890028
v 2.660621 6.895401 4.227830
v -5.199351 -5.885949 3.289623
v -4.375912 -6.338266 3.630121
vt 0.000000 1.000000
vt 0.000000 0.000000
vt 1.000000 0.000000
vt 1.000000 1.000000
vn -0.824100 0.453500 -0.339300
vn 0.317400 -0.126300 -0.939800
vn 0.824100 -0.453500 0.339300
vn -0.317500 0.126200 0.939800
vn 0.469100 0.882300 0.039800
vn 0.469100 0.882200 0.039800
vn -0.469100 -0.882200 -0.039900
vn -0.469100 -0.882300 -0.039800
usemtl frontMaterial
s 1
f 2/1/1 4/2/1 7/3/1 5/4/1
usemtl sideMaterial
f 1/1/2 3/2/2 4/3/2 2/4/2
usemtl backMaterial
f 6/1/3 8/2/3 3/3/3 1/4/3
usemtl sideMaterial
f 5/1/4 7/2/4 8/3/4 6/4/4
usemtl underMaterial
f 5/1/5 6/2/6 1/3/5 2/4/6
f 8/1/7 7/2/8 4/3/7 3/4/8
